<svg id="Calque_1" data-name="Calque 1" xmlns="http://www.w3.org/2000/svg" viewBox="0 0 104.05 104.05"><defs><style>.cls-1,.cls-3{fill:none;}.cls-1,.cls-2,.cls-3{stroke:#000;stroke-linecap:round;stroke-linejoin:round;}.cls-1,.cls-2{stroke-width:4px;}.cls-2{fill:#1d1d1b;}.cls-3{stroke-width:2px;}</style></defs><title>audio</title><ellipse class="cls-1" cx="24.97" cy="76.58" rx="12.61" ry="19.85" transform="translate(-22.42 13.18) rotate(-18.86)"/><ellipse class="cls-2" cx="25.04" cy="76.68" rx="6.05" ry="11.23" transform="matrix(0.95, -0.32, 0.32, 0.95, -22.44, 13.21)"/><path class="cls-1" d="M84.77,57C95.67,31.65,75,6.62,50.95,6.62S6.22,31.65,17.12,57" transform="translate(1 1)"/><ellipse class="cls-1" cx="76.92" cy="76.58" rx="19.85" ry="12.61" transform="translate(-19.42 125.62) rotate(-71.14)"/><ellipse class="cls-2" cx="76.85" cy="76.68" rx="11.23" ry="6.05" transform="translate(-19.56 125.61) rotate(-71.14)"/><path class="cls-1" d="M73.46,14.52l-5.86,9C65,20.89,54.94,19,50.95,19s-14,1.88-16.66,4.49l-5.86-9" transform="translate(1 1)"/><rect class="cls-3" x="1" y="1" width="102.05" height="102.05"/></svg>