<svg id="Calque_1" data-name="Calque 1" xmlns="http://www.w3.org/2000/svg" viewBox="0 0 104.05 104.05"><defs><style>.cls-1{fill:#fff;stroke-linecap:round;stroke-linejoin:round;stroke-width:4px;}.cls-1,.cls-2{stroke:#1d1d1b;}.cls-2{fill:none;stroke-miterlimit:10;stroke-width:2px;}</style></defs><title>discution</title><path class="cls-1" d="M68.77,74.77a40.18,40.18,0,0,1-8.55.91c-17.47,0-31.62-11-31.62-24.6s14.16-24.6,31.62-24.6,31.62,11,31.62,24.6c0,8.16-5.11,15.39-13,19.86,0.56,3.28,3.31,8.73,6.91,11C81.52,82.87,74.63,82.44,68.77,74.77Z" transform="translate(1 1)"/><path class="cls-1" d="M29.39,59.64a33.67,33.67,0,0,0,7.16.76c14.64,0,26.51-9.23,26.51-20.62S51.19,19.17,36.55,19.17,10,28.4,10,39.79c0,6.84,4.28,12.9,10.87,16.65-0.47,2.75-2.77,7.31-5.79,9.24C18.7,66.43,24.48,66.07,29.39,59.64Z" transform="translate(1 1)"/><rect class="cls-2" x="1" y="1" width="102.05" height="102.05"/></svg>