<svg id="Calque_1" data-name="Calque 1" xmlns="http://www.w3.org/2000/svg" viewBox="0 0 104.05 104.05"><defs><style>.cls-1{fill:#1d1d1b;}.cls-2,.cls-3{fill:none;stroke:#1d1d1b;}.cls-2{stroke-linejoin:round;stroke-width:7px;}.cls-3{stroke-miterlimit:10;stroke-width:2px;}</style></defs><title>effacer</title><path class="cls-1" d="M65.33,27.2l10.35,8.45L51,72.1,40.67,63.43,65.33,27.2M64.9,24.27L38,63.8,51.45,75.06l26.9-39.81-13.45-11h0Z" transform="translate(1 1)"/><polygon class="cls-1" points="93.79 32.13 80.33 21.15 65.9 25.27 79.35 36.25 93.79 32.13"/><path class="cls-1" d="M90.46,32.83L66.19,69.54,53.86,73.28,79,36.11l11.48-3.28m2.33-1.7h0Zm0,0L78.35,35.25,51.45,75.06l15.37-4.67,26-39.26h0Z" transform="translate(1 1)"/><polygon class="cls-1" points="52.45 45.04 65.9 56.16 80.53 52.18 93.79 32.13 80.33 21.15 65.9 25.27 52.45 45.04"/><path class="cls-2" d="M10.64,80.28c6-18.57,26.23-2.92,34.19-11.3" transform="translate(1 1)"/><rect class="cls-3" x="1" y="1" width="102.05" height="102.05"/></svg>