<svg id="Calque_1" data-name="Calque 1" xmlns="http://www.w3.org/2000/svg" viewBox="0 0 104.05 104.05"><defs><style>.cls-1,.cls-3,.cls-4{fill:none;}.cls-1{stroke:#000;}.cls-1,.cls-3{stroke-linecap:round;stroke-linejoin:round;stroke-width:4px;}.cls-2{fill:#1d1d1b;}.cls-3,.cls-4{stroke:#1d1d1b;}.cls-4{stroke-miterlimit:10;stroke-width:2px;}</style></defs><title>fermer</title><polyline class="cls-1" points="29.64 51.91 12.17 67.49 75.83 67.49 75.8 67.49 93.28 51.91"/><rect class="cls-1" x="12.17" y="67.49" width="63.71" height="24.44"/><rect class="cls-1" x="12.17" y="38.78" width="63.71" height="12.22"/><polygon class="cls-1" points="93.28 51.91 93.28 76.36 75.88 91.93 75.88 67.49 93.28 51.91"/><path class="cls-2" d="M40.29,46.59l7.51-21c-3,2.48-13.32,2.33-15.69.25Z" transform="translate(1 1)"/><polygon class="cls-1" points="93.28 51.94 93.28 39.72 75.88 38.78 75.88 51 93.28 51.94"/><path class="cls-3" d="M40,30.64C39.86,3.58,74.5,12.46,75.1,28.47" transform="translate(1 1)"/><rect class="cls-4" x="1" y="1" width="102.05" height="102.05"/></svg>