<svg id="Calque_1" data-name="Calque 1" xmlns="http://www.w3.org/2000/svg" viewBox="0 0 104.05 104.05"><defs><style>.cls-1{fill:#fff;stroke-linecap:round;stroke-linejoin:round;stroke-width:4px;}.cls-1,.cls-2{stroke:#1d1d1b;}.cls-2{fill:none;stroke-miterlimit:10;stroke-width:2px;}</style></defs><title>groupe</title><path class="cls-1" d="M50.95,39.44h0c5.63,0,9.69,5.67,7.75,13.19,2.21,0.42.51,5.81-1.27,5.93-0.66,2.63-1.75,3.48-1.68,6.51,1.52,13.33,12.32,11.2,13.48,8.54,1.3-3-1-3.87-1.68-6.51-1.77-.12-3.48-5.52-1.27-5.93C64.35,53.66,68.41,48,74,48h0c5.63,0,9.69,5.67,7.75,13.19,2.21,0.42.51,5.81-1.27,5.93-0.66,2.63-3,3.52-1.68,6.51,1.16,2.66,9.07,3.27,12.1,5.51,7.1-23.52-7.11-54.25-39-55.24H50c-31.93,1-46.13,31.72-39,55.24,3-2.24,10.94-2.85,12.1-5.51,1.3-3-1-3.87-1.68-6.51-1.77-.12-3.48-5.52-1.27-5.93C18.16,53.66,22.22,48,27.85,48h0c5.63,0,9.69,5.67,7.75,13.19,2.21,0.42.51,5.81-1.27,5.93-0.66,2.63-3,3.52-1.68,6.51,1.16,2.66,12,4.79,13.48-8.54,0.07-3-1-3.87-1.68-6.51-1.77-.12-3.48-5.52-1.27-5.93-1.94-7.52,2.12-13.19,7.75-13.19h0Z" transform="translate(1 1)"/><rect class="cls-2" x="1" y="1" width="102.05" height="102.05"/></svg>