<svg id="Calque_1" data-name="Calque 1" xmlns="http://www.w3.org/2000/svg" viewBox="0 0 104.83 104.83"><defs><style>.cls-1,.cls-4,.cls-5{fill:none;}.cls-1,.cls-4{stroke:#000;}.cls-1,.cls-3,.cls-4,.cls-5{stroke-linecap:round;stroke-linejoin:round;}.cls-1,.cls-3,.cls-5{stroke-width:4px;}.cls-2{fill:#1d1d1b;}.cls-3{fill:#fff;}.cls-3,.cls-5{stroke:#1d1d1b;}.cls-4{stroke-width:2px;}</style></defs><title>organiser</title><line class="cls-1" x1="79.12" y1="21.99" x2="79.21" y2="34.48"/><path class="cls-2" d="M77.41,45.41l4.65-12.65c-1.81,1.48-8.05,1.34-9.47.07Z" transform="translate(1.78 0.89)"/><polygon class="cls-3" points="94.06 47.61 83.11 76.91 30.47 76.91 41.41 47.61 94.06 47.61"/><polygon class="cls-3" points="84.88 44.18 83.11 76.91 30.47 76.91 32.24 44.18 84.88 44.18"/><polygon class="cls-3" points="71.77 40.02 83.11 76.91 30.47 76.91 19.13 40.02 71.77 40.02"/><polygon class="cls-3" points="62.6 47.61 83.11 76.91 30.47 76.91 9.95 47.61 62.6 47.61"/><rect class="cls-4" x="1" y="1" width="102.83" height="102.83"/><polygon class="cls-5" points="23.89 54.33 33.23 54.33 37.77 59.52 28.3 59.52 23.89 54.33"/></svg>