<svg id="Calque_1" data-name="Calque 1" xmlns="http://www.w3.org/2000/svg" viewBox="0 0 104.05 104.05"><defs><style>.cls-1,.cls-3,.cls-4{fill:none;stroke-linecap:round;}.cls-1,.cls-4{stroke:#000;stroke-linejoin:round;}.cls-1,.cls-3{stroke-width:4px;}.cls-2{fill:#1d1d1b;}.cls-3{stroke:#1d1d1b;stroke-miterlimit:10;}.cls-4{stroke-width:2px;}</style></defs><title>ouvrir</title><polygon class="cls-1" points="35.59 53.5 27.84 33.46 80.52 33.46 80.49 33.46 88.24 53.5 35.56 53.5 35.59 53.5"/><polygon class="cls-1" points="35.59 53.5 21.13 66.39 73.8 66.39 73.78 66.39 88.24 53.5 35.56 53.5 35.59 53.5"/><path class="cls-1" d="M20.13,85.72" transform="translate(1 0.89)"/><rect class="cls-1" x="21.13" y="66.39" width="52.72" height="20.22"/><polygon class="cls-1" points="88.24 53.5 88.24 73.72 73.85 86.61 73.85 66.39 88.24 53.5"/><line class="cls-1" x1="87.3" y1="23.44" x2="95.05" y2="43.48"/><polyline class="cls-1" points="27.84 33.46 34.74 23.49 87.42 23.49 80.52 33.46 88.24 53.5 95.05 43.48"/><path class="cls-2" d="M30.12,18.12l-18,4.32c3.06,0.93,7.65,8.16,7.28,10.75Z" transform="translate(1 0.89)"/><path class="cls-3" d="M18.49,25.57C10.05,30.83,4.8,48.06,15.75,55.72" transform="translate(1 0.89)"/><rect class="cls-4" x="1" y="1" width="102.05" height="102.05"/></svg>