<svg id="Calque_1" data-name="Calque 1" xmlns="http://www.w3.org/2000/svg" viewBox="0 0 104.05 104.05"><defs><style>.cls-1,.cls-2{fill:none;stroke:#1d1d1b;}.cls-1{stroke-linecap:round;stroke-linejoin:round;stroke-width:4px;}.cls-2{stroke-miterlimit:10;stroke-width:2px;}</style></defs><title>profil</title><path class="cls-1" d="M51.3,15.21c31.9,1,55.14,39.52,31.1,69.63C76.56,80.53,62.8,79,60.56,73.9c-2.51-5.75,2-7.47,3.23-12.54,3.42-.23,6.71-10.64,2.44-11.44C70,35.42,62.15,24.49,51.3,24.49h0c-10.85,0-18.68,10.94-14.94,25.43-4.27.8-1,11.21,2.44,11.44,1.27,5.08,5.74,6.79,3.23,12.54C39.79,79,26,80.53,20.2,84.84c-24-30.11-.81-68.64,31.1-69.63" transform="translate(1 1)"/><rect class="cls-2" x="1" y="1" width="102.05" height="102.05"/></svg>