<svg id="Calque_1" data-name="Calque 1" xmlns="http://www.w3.org/2000/svg" viewBox="0 0 104.05 104.05"><defs><style>.cls-1{fill:none;stroke:#1d1d1b;stroke-miterlimit:10;stroke-width:2px;}</style></defs><title>sauvegarder</title><path d="M63.83,43c-2,2,.46-0.43-1.56,1.54C61.78,45,41.74,65.32,42,65.95A15.32,15.32,0,0,1,43,76.3,15.92,15.92,0,1,1,34.06,58c0.67,0.29,21-19.77,21.54-20.29,3.31-3.36,6.66-6.69,10-10q5.57-5.57,11.15-11.14a4.71,4.71,0,0,1,6.58-.25c2.78,2.68,5.5,5.42,8.18,8.2a4.27,4.27,0,0,1,1.32,3.81c-0.34,1.89-8,10-9.87,10.61a4.74,4.74,0,0,1-5.11-1.28c-1.42-1.44-2.86-2.87-4.18-4.2L71.39,35.7c1.34,1.34,2.77,2.73,4.17,4.17A4.6,4.6,0,0,1,77,44.63a4.78,4.78,0,0,1-8.12,2.05c-1.45-1.42-2.86-2.88-4.33-4.36C64.24,42.59,64,42.76,63.83,43ZM21.08,72.61a6.61,6.61,0,0,0,6.62,6.24A6.37,6.37,0,1,0,21.08,72.61Z" transform="translate(1 1)"/><rect class="cls-1" x="1" y="1" width="102.05" height="102.05"/></svg>