<svg id="Calque_1" data-name="Calque 1" xmlns="http://www.w3.org/2000/svg" viewBox="0 0 104.05 104.05"><defs><style>.cls-1,.cls-2,.cls-3,.cls-5{fill:none;}.cls-1,.cls-2,.cls-3{stroke:#000;stroke-linecap:round;stroke-linejoin:round;stroke-width:4px;}.cls-2{stroke-dasharray:5.02 6.03;}.cls-3{stroke-dasharray:5.02 6.03;}.cls-4{fill:#1d1d1b;}.cls-5{stroke:#1d1d1b;stroke-miterlimit:10;stroke-width:2px;}</style></defs><title>zoomer</title><rect class="cls-1" x="13.29" y="13.81" width="32.37" height="32.37"/><polyline class="cls-1" points="90.6 88.62 90.6 91.12 88.1 91.12"/><line class="cls-2" x1="82.08" y1="91.12" x2="18.8" y2="91.12"/><polyline class="cls-1" points="15.79 91.12 13.29 91.12 13.29 88.62"/><line class="cls-3" x1="13.29" y1="82.59" x2="13.29" y2="19.32"/><polyline class="cls-1" points="13.29 16.3 13.29 13.8 15.79 13.8"/><line class="cls-2" x1="21.81" y1="13.81" x2="85.09" y2="13.81"/><polyline class="cls-1" points="88.1 13.8 90.6 13.8 90.6 16.3"/><line class="cls-3" x1="90.6" y1="22.33" x2="90.6" y2="85.6"/><line class="cls-1" x1="45.66" y1="46.18" x2="62.43" y2="62.94"/><path class="cls-4" d="M77.16,78L66.58,54.66c-0.47,4.41-9.1,12.54-12.72,12.72Z" transform="translate(1 1)"/><rect class="cls-5" x="1" y="1" width="102.05" height="102.05"/></svg>