<svg id="Calque_1" data-name="Calque 1" xmlns="http://www.w3.org/2000/svg" viewBox="0 0 104.05 104.05"><defs><style>.cls-1,.cls-3,.cls-4{fill:none;}.cls-1,.cls-4{stroke:#1d1d1b;}.cls-1,.cls-3{stroke-linecap:round;stroke-linejoin:round;stroke-width:4px;}.cls-2{fill:#1d1d1b;}.cls-3{stroke:#000;}.cls-4{stroke-miterlimit:10;stroke-width:2px;}</style></defs><title>compte</title><line class="cls-1" x1="52.45" y1="51.27" x2="52.45" y2="77.41"/><path class="cls-2" d="M51.45,90l6.39-17c-2.45,2-10.88,1.73-12.78,0Z" transform="translate(1 1)"/><path class="cls-1" d="M51.45,12.48c30.86,1,53.33,38.23,30.08,67.35-5.65-4.17-19-5.63-21.12-10.58C58,63.68,62.31,62,63.54,57.11c3.31-.23,6.49-10.29,2.36-11.06,3.61-14-4-24.6-14.45-24.6h0C41,21.45,33.39,32,37,46.05c-4.13.77-.95,10.84,2.36,11.06,1.23,4.91,5.55,6.57,3.13,12.13-2.16,5-15.47,6.41-21.12,10.58-23.25-29.12-.78-66.39,30.08-67.35" transform="translate(1 1)"/><line class="cls-3" x1="43.17" y1="90.95" x2="61.74" y2="90.95"/><rect class="cls-4" x="1" y="1" width="102.05" height="102.05"/></svg>