<svg id="Calque_1" data-name="Calque 1" xmlns="http://www.w3.org/2000/svg" viewBox="0 0 743.43 743.43"><defs><style>.cls-1{fill:#fff;}.cls-2{fill:none;stroke:#000;stroke-miterlimit:10;stroke-width:22px;}</style></defs><title>ruche</title><path d="M711.24,238.41c13.69-.85,26.7,1,36.66,11.64s13,22.92,9.34,37.25c19.51,9.59,28,25,23.62,47.12,9.86,4.38,17.58,11.19,21.79,21.38s3.75,20.46-.49,30.78c8.74,7.24,14.58,16.25,15,27.7,0.22,5.53-1.34,11.11-1.89,16.69-0.15,1.53-.1,3.66.81,4.61,13.72,14.37,16.47,26.31,10.18,45.87,8.12,6.8,13.46,15.29,14.91,26.1,1.24,9.22-1.26,17.43-5.84,25.27-0.74,1.26-1.58,3.53-1,4.34,6.53,9.05,8.44,19,6.15,30.74,3.2,0,5.93.07,8.66,0,8.86-.25,15.77,3.59,19.77,11.18a60.21,60.21,0,0,1,6.31,18.2c2.09,13.07,1.82,26.26-2.31,39.05-4.74,14.68-12.71,20.36-28.09,20.36q-236.47,0-472.94.19c-18,0-28.39-4.77-33.25-27.39a78.64,78.64,0,0,1,1.41-40,47.27,47.27,0,0,1,6.39-12.85c4-5.78,9.94-8.7,17.12-8.7h11c-2.56-12,.51-22.2,7-31.46-12.69-22.39-10.8-36.82,7.11-55.15-6.93-19.39-2.07-35.22,11.94-47.35-6.06-21.28-3.33-32.07,12-47.33-7-25.35-1.53-38.75,21.5-52.46-4.1-21.39,3.66-37,23.64-46.75-2.9-11.52-1.43-22.57,5.62-32.54s17-15.14,28.95-16.52c0-5.38-.8-10.64.15-15.56,2.89-14.94,11.93-25,26.34-29.92,3-1,4.35-2.53,5.42-5.51,9.37-26.19,28.83-41.63,54.89-48.54,32.83-8.71,62.76-2.48,88.16,21a62.48,62.48,0,0,1,18,30c0.43,1.57,1.46,3.56,2.77,4.22C706.26,203.11,713.93,217.62,711.24,238.41ZM846,597.9H375a26.24,26.24,0,0,1-3,0c-2.75-.32-4.05.91-4.13,3.61-0.17,6.14-.82,12.3-0.42,18.4,0.45,6.81.86,6.78,7.9,6.78H838.68c1.17,0,2.55.4,3.45-.1,1.47-.81,3.68-2.15,3.72-3.34C846.18,615,846,606.74,846,597.9ZM683.94,567.67c0-12.94.86-25.48-.19-37.85-1.93-22.72-10.34-42.93-26.88-59.16-11.31-11.1-24.71-18-40.81-18.65-22.32-.91-39.4,9.23-53,26-21.53,26.42-22.37,57.63-20.51,89.69H683.94ZM606.45,408.9H439c-1.67,0-3.34-.07-5,0.06-4.46.37-7,3-7.54,7.28a7.56,7.56,0,0,0,5.38,8.57,23,23,0,0,0,7.38.84q71.21,0.07,142.42,0a33.53,33.53,0,0,0,8.36-1,88.37,88.37,0,0,1,37.62-1.72c5.39,0.92,10.77,2.65,16.16,2.68,43.81,0.22,87.62.13,131.43,0.1a20.93,20.93,0,0,0,5.92-.58c4.26-1.28,6.15-4.51,5.7-8.8a7.57,7.57,0,0,0-7-7.25,41.68,41.68,0,0,0-5.49-.11H606.45Zm0.06-30.76H715.46c16.66,0,33.32,0,50,0,5.52,0,8.7-3.11,8.8-8.07s-3-8.19-8.35-8.64c-1.32-.11-2.66,0-4,0q-155.43,0-310.85,0a32.75,32.75,0,0,0-6,.33c-4.41.82-6.55,3.83-6.66,8.13-0.13,5.21,3.79,8.31,10.17,8.31H606.51Zm0-47.24H738.44c8.65,0,12.61-2.73,12.52-8.61-0.08-5.73-3.84-8.26-12.28-8.26H474.33a33.38,33.38,0,0,0-4.49.08c-4.11.56-6.63,2.93-7.31,7-1,5.78,2.93,9.73,9.57,9.74Q539.31,330.91,606.52,330.9ZM607,266.69H499a42.85,42.85,0,0,0-5.49.17c-5.54.72-8.31,5.11-6.72,10.5,1.7,5.78,6.31,6,11.2,6q109.23,0,218.47,0a35.26,35.26,0,0,0,4.49-.15,7.81,7.81,0,0,0,7.13-8.17c0-5.57-3.43-8.32-10.61-8.32Q662.22,266.67,607,266.69ZM600.23,236h13.49c19,0,38,0,57,0,6.39,0,10-3.87,9.33-9.57-0.58-4.77-4-7.28-10.2-7.28q-69,0-137.91,0c-6.8,0-10.76,3.14-10.77,8.39s4,8.48,10.64,8.48h68.46ZM541.36,456.16c-39.73,0-78.83,0-117.92.06a8.1,8.1,0,0,0-8.43,8.59c0.1,4.81,3.49,8.17,8.82,8.18q51.45,0.1,102.9,0a5.78,5.78,0,0,0,4-2C534.26,466.38,537.51,461.58,541.36,456.16ZM516.5,503.69H457c-15,0-29.95-.05-44.92,0-5.56,0-8.9,3.06-9.13,7.8s3.76,9,9,9.47c0.83,0.07,1.66,0,2.49,0q47.16,0,94.33,0c1.43,0,2.86-.19,4.28-0.29Zm-5.11,47.38c-33.86,0-67.29-.06-100.72.07-4.35,0-7.06,2.92-7.57,7.25-0.55,4.6,2,7.61,6,9.31a12.89,12.89,0,0,0,4.9.62q46.69,0.05,93.37,0a39.16,39.16,0,0,0,4-.42V551.07ZM684,455.93c3.52,5,6.78,9.16,9.56,13.65a6.47,6.47,0,0,0,6.37,3.51c14.64-.16,29.27-0.07,43.91-0.07q23,0,45.91,0c4.13,0,7.59-1.71,8.34-5.65,0.55-2.88,0-6.83-1.69-9-1.45-1.86-5.26-2.57-8-2.58-33.27-.17-66.53-0.11-99.8-0.1C687.23,455.7,685.93,455.83,684,455.93ZM652.62,188.86c-12.34-18.65-29.77-25.63-50.26-25.33-19.67.28-36.44,7.25-48.15,25.33h98.42Zm60.26,330.78c1,0.11,1.67.24,2.33,0.24q43,0,85.92,0a13.18,13.18,0,0,0,3.46-.34c3.75-1,6-3.53,6.33-7.44,0.3-4.11-1.54-7.2-5.48-8.51a23.85,23.85,0,0,0-7.31-1.2q-42.21-.12-84.42,0c-1.4,0-2.8.25-4.31,0.39Zm1.19,47.3c1.37,0.09,2.19.18,3,.18H801.4a13.81,13.81,0,0,0,3-.17,7.74,7.74,0,0,0,6.5-7.23c0.41-4.08-1.33-7.25-5.26-8.62a19.83,19.83,0,0,0-6.38-.73q-39.92-.07-79.84,0c-1.75,0-3.5.15-5.33,0.23v16.36Z" transform="translate(-233.73 -68.18)"/><path class="cls-1" d="M846,597.9c0,8.84.15,17.1-.17,25.34,0,1.19-2.26,2.53-3.72,3.34-0.9.49-2.28,0.1-3.45,0.1H375.37c-7,0-7.46,0-7.9-6.78-0.4-6.1.25-12.27,0.42-18.4,0.08-2.7,1.38-3.93,4.13-3.61a26.24,26.24,0,0,0,3,0H846Z" transform="translate(-233.73 -68.18)"/><path class="cls-1" d="M683.94,567.67H542.52c-1.86-32.06-1-63.27,20.51-89.69,13.64-16.74,30.72-26.88,53-26,16.09,0.65,29.5,7.55,40.81,18.65,16.54,16.23,25,36.44,26.88,59.16C684.81,542.19,683.94,554.73,683.94,567.67Z" transform="translate(-233.73 -68.18)"/><path class="cls-1" d="M606.45,408.9H774.35a41.68,41.68,0,0,1,5.49.11,7.57,7.57,0,0,1,7,7.25c0.45,4.29-1.44,7.52-5.7,8.8a20.93,20.93,0,0,1-5.92.58c-43.81,0-87.62.12-131.43-.1-5.39,0-10.77-1.76-16.16-2.68A88.37,88.37,0,0,0,590,424.59a33.53,33.53,0,0,1-8.36,1q-71.21.09-142.42,0a23,23,0,0,1-7.38-.84,7.56,7.56,0,0,1-5.38-8.57c0.52-4.3,3.08-6.91,7.54-7.28,1.66-.14,3.33-0.06,5-0.06H606.45Z" transform="translate(-233.73 -68.18)"/><path class="cls-1" d="M606.51,378.14H448.59c-6.39,0-10.3-3.1-10.17-8.31,0.11-4.3,2.25-7.31,6.66-8.13a32.75,32.75,0,0,1,6-.33q155.43,0,310.85,0c1.33,0,2.67-.07,4,0,5.4,0.45,8.46,3.64,8.35,8.64s-3.28,8-8.8,8.07c-16.66.08-33.32,0-50,0H606.51Z" transform="translate(-233.73 -68.18)"/><path class="cls-1" d="M606.52,330.9q-67.21,0-134.42,0c-6.64,0-10.52-4-9.57-9.74,0.68-4.11,3.21-6.48,7.31-7a33.38,33.38,0,0,1,4.49-.08H738.68c8.44,0,12.2,2.53,12.28,8.26,0.09,5.88-3.88,8.61-12.52,8.61H606.52Z" transform="translate(-233.73 -68.18)"/><path class="cls-1" d="M607,266.69q55.24,0,110.48,0c7.18,0,10.61,2.76,10.61,8.32a7.81,7.81,0,0,1-7.13,8.17,35.26,35.26,0,0,1-4.49.15q-109.23,0-218.47,0c-4.89,0-9.49-.22-11.2-6-1.59-5.39,1.18-9.78,6.72-10.5a42.85,42.85,0,0,1,5.49-.17H607Z" transform="translate(-233.73 -68.18)"/><path class="cls-1" d="M600.23,236H531.77c-6.65,0-10.65-3.2-10.64-8.48s4-8.39,10.77-8.39q69,0,137.91,0c6.21,0,9.63,2.51,10.2,7.28,0.69,5.7-2.94,9.55-9.33,9.57-19,.06-38,0-57,0H600.23Z" transform="translate(-233.73 -68.18)"/><path class="cls-1" d="M541.36,456.16c-3.85,5.42-7.1,10.22-10.64,14.8a5.78,5.78,0,0,1-4,2q-51.45.16-102.9,0c-5.34,0-8.72-3.36-8.82-8.18a8.1,8.1,0,0,1,8.43-8.59C462.53,456.11,501.63,456.16,541.36,456.16Z" transform="translate(-233.73 -68.18)"/><path class="cls-1" d="M516.5,503.69l-3.39,17c-1.42.1-2.85,0.29-4.28,0.29q-47.16,0-94.33,0c-0.83,0-1.67.05-2.49,0-5.25-.44-9.24-4.66-9-9.47s3.57-7.77,9.13-7.8c15-.09,29.94,0,44.92,0H516.5Z" transform="translate(-233.73 -68.18)"/><path class="cls-1" d="M511.39,551.07V567.9a39.16,39.16,0,0,1-4,.42q-46.69,0-93.37,0a12.89,12.89,0,0,1-4.9-.62c-4-1.7-6.56-4.71-6-9.31,0.52-4.33,3.22-7.23,7.57-7.25C444.1,551,477.53,551.07,511.39,551.07Z" transform="translate(-233.73 -68.18)"/><path class="cls-1" d="M684,455.93c2-.11,3.26-0.24,4.56-0.24,33.27,0,66.53-.07,99.8.1,2.77,0,6.58.73,8,2.58,1.7,2.18,2.23,6.13,1.69,9-0.75,3.94-4.21,5.66-8.34,5.65q-23,0-45.91,0c-14.64,0-29.28-.09-43.91.07a6.47,6.47,0,0,1-6.37-3.51C690.75,465.1,687.49,460.91,684,455.93Z" transform="translate(-233.73 -68.18)"/><path class="cls-1" d="M652.62,188.86H554.2c11.72-18.09,28.49-25,48.15-25.33C622.85,163.23,640.28,170.21,652.62,188.86Z" transform="translate(-233.73 -68.18)"/><path class="cls-1" d="M712.88,519.64l-3.5-16.89c1.51-.14,2.91-0.39,4.31-0.39q42.21,0,84.42,0a23.85,23.85,0,0,1,7.31,1.2c3.95,1.31,5.79,4.4,5.48,8.51-0.29,3.91-2.57,6.4-6.33,7.44a13.18,13.18,0,0,1-3.46.34q-43,0-85.92,0C714.54,519.88,713.89,519.75,712.88,519.64Z" transform="translate(-233.73 -68.18)"/><path class="cls-1" d="M714.06,566.94V550.59c1.83-.08,3.58-0.23,5.33-0.23q39.92,0,79.84,0a19.83,19.83,0,0,1,6.38.73c3.93,1.37,5.67,4.54,5.26,8.62a7.74,7.74,0,0,1-6.5,7.23,13.81,13.81,0,0,1-3,.17H717.07C716.25,567.13,715.43,567,714.06,566.94Z" transform="translate(-233.73 -68.18)"/><circle class="cls-2" cx="371.72" cy="371.72" r="360.72"/></svg>